<mxfile host="app.diagrams.net" modified="2023-06-15T05:57:34.792Z" agent="Mozilla/5.0 (Windows NT 10.0; Win64; x64) AppleWebKit/537.36 (KHTML, like Gecko) Chrome/114.0.0.0 Safari/537.36" etag="PqSZHh64pz_09js8vdER" version="21.3.8" type="device">
  <diagram name="PÃ¡gina-1" id="EJl1tC74jtopaxx9l2ul">
    <mxGraphModel dx="2336" dy="2007" grid="1" gridSize="10" guides="1" tooltips="1" connect="1" arrows="1" fold="1" page="1" pageScale="1" pageWidth="827" pageHeight="1169" math="0" shadow="0">
      <root>
        <mxCell id="0" />
        <mxCell id="1" parent="0" />
        <mxCell id="cjWLQR7C9Qx7QQM9_jkd-96" value="&lt;div&gt;Muestra&lt;/div&gt;&lt;div&gt;&lt;br&gt;&lt;/div&gt;" style="swimlane;fontStyle=1;align=center;verticalAlign=top;childLayout=stackLayout;horizontal=1;startSize=30;horizontalStack=0;resizeParent=1;resizeParentMax=0;resizeLast=0;collapsible=1;marginBottom=0;whiteSpace=wrap;html=1;fillColor=#dae8fc;strokeColor=#6c8ebf;" parent="1" vertex="1">
          <mxGeometry x="-180" y="585" width="210" height="310" as="geometry" />
        </mxCell>
        <mxCell id="cjWLQR7C9Qx7QQM9_jkd-97" value="&lt;div&gt;-ubicacion&lt;/div&gt;&lt;div&gt;-usuario&lt;/div&gt;&lt;div&gt;-tipoInsecto&lt;/div&gt;&lt;div&gt;-fechaCreacion&lt;/div&gt;" style="text;strokeColor=none;fillColor=none;align=left;verticalAlign=top;spacingLeft=4;spacingRight=4;overflow=hidden;rotatable=0;points=[[0,0.5],[1,0.5]];portConstraint=eastwest;whiteSpace=wrap;html=1;" parent="cjWLQR7C9Qx7QQM9_jkd-96" vertex="1">
          <mxGeometry y="30" width="210" height="80" as="geometry" />
        </mxCell>
        <mxCell id="cjWLQR7C9Qx7QQM9_jkd-98" value="" style="line;strokeWidth=1;fillColor=none;align=left;verticalAlign=middle;spacingTop=-1;spacingLeft=3;spacingRight=3;rotatable=0;labelPosition=right;points=[];portConstraint=eastwest;strokeColor=inherit;" parent="cjWLQR7C9Qx7QQM9_jkd-96" vertex="1">
          <mxGeometry y="110" width="210" height="8" as="geometry" />
        </mxCell>
        <mxCell id="cjWLQR7C9Qx7QQM9_jkd-99" value="&lt;div&gt;+getUbicacion():Ubicacion&lt;/div&gt;&lt;div&gt;+getUsuario():Usuario&lt;/div&gt;&lt;div&gt;+getFechaCreacion():LocalDate&lt;/div&gt;&lt;div&gt;+getTipoInsecto():OpinionImagen&lt;br&gt;&lt;/div&gt;&lt;div&gt;+getOpiniones():ArrayList&amp;lt;Opinion&amp;gt;&lt;/div&gt;&lt;div&gt;+cambiarEstado():void&lt;/div&gt;&lt;div&gt;+agregarOpinion():void&lt;/div&gt;&lt;div&gt;+opinionDeUsuario():void&lt;/div&gt;&lt;div&gt;+esVerificada():boolean&lt;/div&gt;&lt;div&gt;+opinionesExpertos():ArrayList&amp;lt;Opinion&amp;gt;&lt;/div&gt;&lt;div&gt;+actualizarOpinion():void&lt;/div&gt;&lt;div&gt;+actualizarOpinionActual():void&lt;/div&gt;&lt;div&gt;+new(ubicacion, usuario, opinion)&lt;br&gt;&lt;/div&gt;" style="text;strokeColor=none;fillColor=none;align=left;verticalAlign=top;spacingLeft=4;spacingRight=4;overflow=hidden;rotatable=0;points=[[0,0.5],[1,0.5]];portConstraint=eastwest;whiteSpace=wrap;html=1;" parent="cjWLQR7C9Qx7QQM9_jkd-96" vertex="1">
          <mxGeometry y="118" width="210" height="192" as="geometry" />
        </mxCell>
        <mxCell id="cjWLQR7C9Qx7QQM9_jkd-109" value="Ubicacion" style="swimlane;fontStyle=1;align=center;verticalAlign=top;childLayout=stackLayout;horizontal=1;startSize=26;horizontalStack=0;resizeParent=1;resizeParentMax=0;resizeLast=0;collapsible=1;marginBottom=0;whiteSpace=wrap;html=1;fillColor=#d5e8d4;strokeColor=#82b366;" parent="1" vertex="1">
          <mxGeometry x="1160" y="1198" width="440" height="164" as="geometry" />
        </mxCell>
        <mxCell id="cjWLQR7C9Qx7QQM9_jkd-110" value="+ latitud: double" style="text;strokeColor=none;fillColor=none;align=left;verticalAlign=top;spacingLeft=4;spacingRight=4;overflow=hidden;rotatable=0;points=[[0,0.5],[1,0.5]];portConstraint=eastwest;whiteSpace=wrap;html=1;" parent="cjWLQR7C9Qx7QQM9_jkd-109" vertex="1">
          <mxGeometry y="26" width="440" height="26" as="geometry" />
        </mxCell>
        <mxCell id="cjWLQR7C9Qx7QQM9_jkd-113" value="+ longitud: double" style="text;strokeColor=none;fillColor=none;align=left;verticalAlign=top;spacingLeft=4;spacingRight=4;overflow=hidden;rotatable=0;points=[[0,0.5],[1,0.5]];portConstraint=eastwest;whiteSpace=wrap;html=1;" parent="cjWLQR7C9Qx7QQM9_jkd-109" vertex="1">
          <mxGeometry y="52" width="440" height="26" as="geometry" />
        </mxCell>
        <mxCell id="cjWLQR7C9Qx7QQM9_jkd-111" value="" style="line;strokeWidth=1;fillColor=none;align=left;verticalAlign=middle;spacingTop=-1;spacingLeft=3;spacingRight=3;rotatable=0;labelPosition=right;points=[];portConstraint=eastwest;strokeColor=inherit;" parent="cjWLQR7C9Qx7QQM9_jkd-109" vertex="1">
          <mxGeometry y="78" width="440" height="8" as="geometry" />
        </mxCell>
        <mxCell id="cjWLQR7C9Qx7QQM9_jkd-112" value="+ distanciaEntre(Ubicacion) double" style="text;strokeColor=none;fillColor=none;align=left;verticalAlign=top;spacingLeft=4;spacingRight=4;overflow=hidden;rotatable=0;points=[[0,0.5],[1,0.5]];portConstraint=eastwest;whiteSpace=wrap;html=1;" parent="cjWLQR7C9Qx7QQM9_jkd-109" vertex="1">
          <mxGeometry y="86" width="440" height="26" as="geometry" />
        </mxCell>
        <mxCell id="cjWLQR7C9Qx7QQM9_jkd-114" value="+ seEncuentranAMenosDeKM(List &amp;lt;Ubicacion&amp;gt;, int): List&amp;lt;Ubicacion&amp;gt;" style="text;strokeColor=none;fillColor=none;align=left;verticalAlign=top;spacingLeft=4;spacingRight=4;overflow=hidden;rotatable=0;points=[[0,0.5],[1,0.5]];portConstraint=eastwest;whiteSpace=wrap;html=1;" parent="cjWLQR7C9Qx7QQM9_jkd-109" vertex="1">
          <mxGeometry y="112" width="440" height="26" as="geometry" />
        </mxCell>
        <mxCell id="KyZHcvAiNXcdfksuzNY9-119" value="&lt;i&gt;&lt;u&gt;+ newUbicacion(Double,Double) : void&lt;/u&gt;&lt;/i&gt;" style="text;strokeColor=none;fillColor=none;align=left;verticalAlign=top;spacingLeft=4;spacingRight=4;overflow=hidden;rotatable=0;points=[[0,0.5],[1,0.5]];portConstraint=eastwest;whiteSpace=wrap;html=1;" vertex="1" parent="cjWLQR7C9Qx7QQM9_jkd-109">
          <mxGeometry y="138" width="440" height="26" as="geometry" />
        </mxCell>
        <mxCell id="cjWLQR7C9Qx7QQM9_jkd-116" value="" style="text;strokeColor=none;fillColor=none;align=left;verticalAlign=middle;spacingTop=-1;spacingLeft=4;spacingRight=4;rotatable=0;labelPosition=right;points=[];portConstraint=eastwest;" parent="1" vertex="1">
          <mxGeometry x="630" y="906" width="20" height="14" as="geometry" />
        </mxCell>
        <mxCell id="cjWLQR7C9Qx7QQM9_jkd-117" value="Organizacion" style="swimlane;fontStyle=1;align=center;verticalAlign=top;childLayout=stackLayout;horizontal=1;startSize=26;horizontalStack=0;resizeParent=1;resizeParentMax=0;resizeLast=0;collapsible=1;marginBottom=0;whiteSpace=wrap;html=1;fillColor=#d5e8d4;strokeColor=#82b366;" parent="1" vertex="1">
          <mxGeometry x="680" y="826" width="450" height="260" as="geometry" />
        </mxCell>
        <mxCell id="cjWLQR7C9Qx7QQM9_jkd-122" value="+ cantidadDePersonas: int" style="text;strokeColor=none;fillColor=none;align=left;verticalAlign=top;spacingLeft=4;spacingRight=4;overflow=hidden;rotatable=0;points=[[0,0.5],[1,0.5]];portConstraint=eastwest;whiteSpace=wrap;html=1;" parent="cjWLQR7C9Qx7QQM9_jkd-117" vertex="1">
          <mxGeometry y="26" width="450" height="26" as="geometry" />
        </mxCell>
        <mxCell id="cjWLQR7C9Qx7QQM9_jkd-119" value="" style="line;strokeWidth=1;fillColor=none;align=left;verticalAlign=middle;spacingTop=-1;spacingLeft=3;spacingRight=3;rotatable=0;labelPosition=right;points=[];portConstraint=eastwest;strokeColor=inherit;" parent="cjWLQR7C9Qx7QQM9_jkd-117" vertex="1">
          <mxGeometry y="52" width="450" height="8" as="geometry" />
        </mxCell>
        <mxCell id="cjWLQR7C9Qx7QQM9_jkd-123" value="+ nuevaCargaMuestra(ZonaDeCobertura,Muestra): void" style="text;strokeColor=none;fillColor=none;align=left;verticalAlign=top;spacingLeft=4;spacingRight=4;overflow=hidden;rotatable=0;points=[[0,0.5],[1,0.5]];portConstraint=eastwest;whiteSpace=wrap;html=1;" parent="cjWLQR7C9Qx7QQM9_jkd-117" vertex="1">
          <mxGeometry y="60" width="450" height="26" as="geometry" />
        </mxCell>
        <mxCell id="cjWLQR7C9Qx7QQM9_jkd-120" value="+ nuevaValidacionMuestra(ZonaDeCobertura,Muestra)): void" style="text;strokeColor=none;fillColor=none;align=left;verticalAlign=top;spacingLeft=4;spacingRight=4;overflow=hidden;rotatable=0;points=[[0,0.5],[1,0.5]];portConstraint=eastwest;whiteSpace=wrap;html=1;" parent="cjWLQR7C9Qx7QQM9_jkd-117" vertex="1">
          <mxGeometry y="86" width="450" height="26" as="geometry" />
        </mxCell>
        <mxCell id="KyZHcvAiNXcdfksuzNY9-52" value="+ suscribirseAValidacionMuestraZona(ZonaDeCobertura): void" style="text;strokeColor=none;fillColor=none;align=left;verticalAlign=top;spacingLeft=4;spacingRight=4;overflow=hidden;rotatable=0;points=[[0,0.5],[1,0.5]];portConstraint=eastwest;whiteSpace=wrap;html=1;" vertex="1" parent="cjWLQR7C9Qx7QQM9_jkd-117">
          <mxGeometry y="112" width="450" height="26" as="geometry" />
        </mxCell>
        <mxCell id="KyZHcvAiNXcdfksuzNY9-59" value="+ suscribirseACargaMuestraZona(ZonaDeCobertura): void" style="text;strokeColor=none;fillColor=none;align=left;verticalAlign=top;spacingLeft=4;spacingRight=4;overflow=hidden;rotatable=0;points=[[0,0.5],[1,0.5]];portConstraint=eastwest;whiteSpace=wrap;html=1;" vertex="1" parent="cjWLQR7C9Qx7QQM9_jkd-117">
          <mxGeometry y="138" width="450" height="26" as="geometry" />
        </mxCell>
        <mxCell id="KyZHcvAiNXcdfksuzNY9-67" value="+ desuscribirseDeValidacionMuestraZona(ZonaDeCobertura): void" style="text;strokeColor=none;fillColor=none;align=left;verticalAlign=top;spacingLeft=4;spacingRight=4;overflow=hidden;rotatable=0;points=[[0,0.5],[1,0.5]];portConstraint=eastwest;whiteSpace=wrap;html=1;" vertex="1" parent="cjWLQR7C9Qx7QQM9_jkd-117">
          <mxGeometry y="164" width="450" height="26" as="geometry" />
        </mxCell>
        <mxCell id="KyZHcvAiNXcdfksuzNY9-76" value="+ desuscribirseDeCargaMuestraZona(ZonaDeCobertura): void" style="text;strokeColor=none;fillColor=none;align=left;verticalAlign=top;spacingLeft=4;spacingRight=4;overflow=hidden;rotatable=0;points=[[0,0.5],[1,0.5]];portConstraint=eastwest;whiteSpace=wrap;html=1;" vertex="1" parent="cjWLQR7C9Qx7QQM9_jkd-117">
          <mxGeometry y="190" width="450" height="26" as="geometry" />
        </mxCell>
        <mxCell id="KyZHcvAiNXcdfksuzNY9-117" value="&lt;i&gt;&lt;u&gt;+ newOrganizacion(Ubicacion,TipoDeOrganizacion,cantidadPersonas&lt;br&gt;,FuncionalidadExterna,FuncionalidadExterna): void&lt;/u&gt;&lt;/i&gt;" style="text;strokeColor=none;fillColor=none;align=left;verticalAlign=top;spacingLeft=4;spacingRight=4;overflow=hidden;rotatable=0;points=[[0,0.5],[1,0.5]];portConstraint=eastwest;whiteSpace=wrap;html=1;" vertex="1" parent="cjWLQR7C9Qx7QQM9_jkd-117">
          <mxGeometry y="216" width="450" height="44" as="geometry" />
        </mxCell>
        <mxCell id="cjWLQR7C9Qx7QQM9_jkd-127" value="&lt;p style=&quot;margin:0px;margin-top:4px;text-align:center;&quot;&gt;&lt;i&gt;&amp;lt;&amp;lt;Interface&amp;gt;&amp;gt;&lt;/i&gt;&lt;/p&gt;&lt;p style=&quot;margin:0px;margin-top:4px;text-align:center;&quot;&gt;&lt;b&gt;FuncionalidadExterna&lt;/b&gt;&lt;br&gt;&lt;/p&gt;&lt;hr size=&quot;1&quot;&gt;&lt;p style=&quot;margin:0px;margin-left:4px;&quot;&gt;&lt;/p&gt;&lt;p style=&quot;margin:0px;margin-left:4px;&quot;&gt;+ nuevoEvento(Organizacion, zonaCobertura, muestra)&lt;br&gt;&lt;/p&gt;" style="verticalAlign=top;align=left;overflow=fill;fontSize=12;fontFamily=Helvetica;html=1;whiteSpace=wrap;fillColor=#d5e8d4;strokeColor=#82b366;" parent="1" vertex="1">
          <mxGeometry x="1330" y="772" width="330" height="80" as="geometry" />
        </mxCell>
        <mxCell id="KyZHcvAiNXcdfksuzNY9-103" style="edgeStyle=orthogonalEdgeStyle;rounded=0;orthogonalLoop=1;jettySize=auto;html=1;exitX=0.75;exitY=0;exitDx=0;exitDy=0;entryX=0.156;entryY=1.166;entryDx=0;entryDy=0;entryPerimeter=0;" edge="1" parent="1" source="cjWLQR7C9Qx7QQM9_jkd-128" target="KyZHcvAiNXcdfksuzNY9-39">
          <mxGeometry relative="1" as="geometry">
            <Array as="points">
              <mxPoint x="787" y="1320" />
              <mxPoint x="781" y="1320" />
            </Array>
          </mxGeometry>
        </mxCell>
        <mxCell id="KyZHcvAiNXcdfksuzNY9-105" style="edgeStyle=orthogonalEdgeStyle;rounded=0;orthogonalLoop=1;jettySize=auto;html=1;exitX=1;exitY=0;exitDx=0;exitDy=0;entryX=0.487;entryY=1.192;entryDx=0;entryDy=0;entryPerimeter=0;" edge="1" parent="1" source="cjWLQR7C9Qx7QQM9_jkd-128" target="KyZHcvAiNXcdfksuzNY9-39">
          <mxGeometry relative="1" as="geometry">
            <Array as="points">
              <mxPoint x="915" y="1320" />
              <mxPoint x="910" y="1320" />
            </Array>
          </mxGeometry>
        </mxCell>
        <mxCell id="cjWLQR7C9Qx7QQM9_jkd-128" value="ZonaDeCobertura" style="swimlane;fontStyle=1;align=center;verticalAlign=top;childLayout=stackLayout;horizontal=1;startSize=26;horizontalStack=0;resizeParent=1;resizeParentMax=0;resizeLast=0;collapsible=1;marginBottom=0;whiteSpace=wrap;html=1;fillColor=#d5e8d4;strokeColor=#82b366;" parent="1" vertex="1">
          <mxGeometry x="405" y="1365" width="510" height="346" as="geometry" />
        </mxCell>
        <mxCell id="cjWLQR7C9Qx7QQM9_jkd-136" value="+ nombre: String" style="text;strokeColor=none;fillColor=none;align=left;verticalAlign=top;spacingLeft=4;spacingRight=4;overflow=hidden;rotatable=0;points=[[0,0.5],[1,0.5]];portConstraint=eastwest;whiteSpace=wrap;html=1;" parent="cjWLQR7C9Qx7QQM9_jkd-128" vertex="1">
          <mxGeometry y="26" width="510" height="26" as="geometry" />
        </mxCell>
        <mxCell id="cjWLQR7C9Qx7QQM9_jkd-137" value="+ radioEnKm: int" style="text;strokeColor=none;fillColor=none;align=left;verticalAlign=top;spacingLeft=4;spacingRight=4;overflow=hidden;rotatable=0;points=[[0,0.5],[1,0.5]];portConstraint=eastwest;whiteSpace=wrap;html=1;" parent="cjWLQR7C9Qx7QQM9_jkd-128" vertex="1">
          <mxGeometry y="52" width="510" height="26" as="geometry" />
        </mxCell>
        <mxCell id="cjWLQR7C9Qx7QQM9_jkd-138" value="+ muestrasEnZona: ArrayList&amp;lt;Muestra&amp;gt;" style="text;strokeColor=none;fillColor=none;align=left;verticalAlign=top;spacingLeft=4;spacingRight=4;overflow=hidden;rotatable=0;points=[[0,0.5],[1,0.5]];portConstraint=eastwest;whiteSpace=wrap;html=1;" parent="cjWLQR7C9Qx7QQM9_jkd-128" vertex="1">
          <mxGeometry y="78" width="510" height="26" as="geometry" />
        </mxCell>
        <mxCell id="cjWLQR7C9Qx7QQM9_jkd-130" value="" style="line;strokeWidth=1;fillColor=none;align=left;verticalAlign=middle;spacingTop=-1;spacingLeft=3;spacingRight=3;rotatable=0;labelPosition=right;points=[];portConstraint=eastwest;strokeColor=inherit;" parent="cjWLQR7C9Qx7QQM9_jkd-128" vertex="1">
          <mxGeometry y="104" width="510" height="8" as="geometry" />
        </mxCell>
        <mxCell id="cjWLQR7C9Qx7QQM9_jkd-131" value="+ suscribirAValidacion(ObserverZonaCobertura): void" style="text;strokeColor=none;fillColor=none;align=left;verticalAlign=top;spacingLeft=4;spacingRight=4;overflow=hidden;rotatable=0;points=[[0,0.5],[1,0.5]];portConstraint=eastwest;whiteSpace=wrap;html=1;" parent="cjWLQR7C9Qx7QQM9_jkd-128" vertex="1">
          <mxGeometry y="112" width="510" height="26" as="geometry" />
        </mxCell>
        <mxCell id="KyZHcvAiNXcdfksuzNY9-5" value="+ suscribirACarga(ObserverZonaCobertura): void" style="text;strokeColor=none;fillColor=none;align=left;verticalAlign=top;spacingLeft=4;spacingRight=4;overflow=hidden;rotatable=0;points=[[0,0.5],[1,0.5]];portConstraint=eastwest;whiteSpace=wrap;html=1;" vertex="1" parent="cjWLQR7C9Qx7QQM9_jkd-128">
          <mxGeometry y="138" width="510" height="26" as="geometry" />
        </mxCell>
        <mxCell id="KyZHcvAiNXcdfksuzNY9-6" value="+ desuscribirDeValidacion(ObserverZonaCobertura): void" style="text;strokeColor=none;fillColor=none;align=left;verticalAlign=top;spacingLeft=4;spacingRight=4;overflow=hidden;rotatable=0;points=[[0,0.5],[1,0.5]];portConstraint=eastwest;whiteSpace=wrap;html=1;" vertex="1" parent="cjWLQR7C9Qx7QQM9_jkd-128">
          <mxGeometry y="164" width="510" height="26" as="geometry" />
        </mxCell>
        <mxCell id="KyZHcvAiNXcdfksuzNY9-7" value="+ desuscribirDeCarga(ObserverZonaCobertura): void" style="text;strokeColor=none;fillColor=none;align=left;verticalAlign=top;spacingLeft=4;spacingRight=4;overflow=hidden;rotatable=0;points=[[0,0.5],[1,0.5]];portConstraint=eastwest;whiteSpace=wrap;html=1;" vertex="1" parent="cjWLQR7C9Qx7QQM9_jkd-128">
          <mxGeometry y="190" width="510" height="26" as="geometry" />
        </mxCell>
        <mxCell id="KyZHcvAiNXcdfksuzNY9-8" value="+ zonasSolapadas(List&amp;lt;ZonaDeCobertura&amp;gt;): List&amp;lt;ZonaDeCobertura&amp;gt;" style="text;strokeColor=none;fillColor=none;align=left;verticalAlign=top;spacingLeft=4;spacingRight=4;overflow=hidden;rotatable=0;points=[[0,0.5],[1,0.5]];portConstraint=eastwest;whiteSpace=wrap;html=1;" vertex="1" parent="cjWLQR7C9Qx7QQM9_jkd-128">
          <mxGeometry y="216" width="510" height="26" as="geometry" />
        </mxCell>
        <mxCell id="KyZHcvAiNXcdfksuzNY9-9" value="+ notificarCargaDeMuestra (Muestra): void" style="text;strokeColor=none;fillColor=none;align=left;verticalAlign=top;spacingLeft=4;spacingRight=4;overflow=hidden;rotatable=0;points=[[0,0.5],[1,0.5]];portConstraint=eastwest;whiteSpace=wrap;html=1;" vertex="1" parent="cjWLQR7C9Qx7QQM9_jkd-128">
          <mxGeometry y="242" width="510" height="26" as="geometry" />
        </mxCell>
        <mxCell id="KyZHcvAiNXcdfksuzNY9-23" value="+ notificarValidacionDeMuestra(Muestra): void" style="text;strokeColor=none;fillColor=none;align=left;verticalAlign=top;spacingLeft=4;spacingRight=4;overflow=hidden;rotatable=0;points=[[0,0.5],[1,0.5]];portConstraint=eastwest;whiteSpace=wrap;html=1;" vertex="1" parent="cjWLQR7C9Qx7QQM9_jkd-128">
          <mxGeometry y="268" width="510" height="26" as="geometry" />
        </mxCell>
        <mxCell id="KyZHcvAiNXcdfksuzNY9-24" value="+ agregarMuestra(Muestra): void" style="text;strokeColor=none;fillColor=none;align=left;verticalAlign=top;spacingLeft=4;spacingRight=4;overflow=hidden;rotatable=0;points=[[0,0.5],[1,0.5]];portConstraint=eastwest;whiteSpace=wrap;html=1;" vertex="1" parent="cjWLQR7C9Qx7QQM9_jkd-128">
          <mxGeometry y="294" width="510" height="26" as="geometry" />
        </mxCell>
        <mxCell id="KyZHcvAiNXcdfksuzNY9-118" value="&lt;i&gt;&lt;u&gt;+newZonaDeCobertura(String,Ubicacion,int) : void&lt;/u&gt;&lt;/i&gt;" style="text;strokeColor=none;fillColor=none;align=left;verticalAlign=top;spacingLeft=4;spacingRight=4;overflow=hidden;rotatable=0;points=[[0,0.5],[1,0.5]];portConstraint=eastwest;whiteSpace=wrap;html=1;" vertex="1" parent="cjWLQR7C9Qx7QQM9_jkd-128">
          <mxGeometry y="320" width="510" height="26" as="geometry" />
        </mxCell>
        <mxCell id="KyZHcvAiNXcdfksuzNY9-78" style="edgeStyle=orthogonalEdgeStyle;rounded=0;orthogonalLoop=1;jettySize=auto;html=1;exitX=0.75;exitY=0;exitDx=0;exitDy=0;entryX=0;entryY=0.5;entryDx=0;entryDy=0;" edge="1" parent="1" source="cjWLQR7C9Qx7QQM9_jkd-139" target="cjWLQR7C9Qx7QQM9_jkd-123">
          <mxGeometry relative="1" as="geometry" />
        </mxCell>
        <mxCell id="cjWLQR7C9Qx7QQM9_jkd-139" value="Sistema" style="swimlane;fontStyle=1;align=center;verticalAlign=top;childLayout=stackLayout;horizontal=1;startSize=26;horizontalStack=0;resizeParent=1;resizeParentMax=0;resizeLast=0;collapsible=1;marginBottom=0;whiteSpace=wrap;html=1;fillColor=#fff2cc;strokeColor=#d6b656;" parent="1" vertex="1">
          <mxGeometry x="180" y="1030" width="320" height="138" as="geometry" />
        </mxCell>
        <mxCell id="cjWLQR7C9Qx7QQM9_jkd-140" value="+ muestas: ArrayList&amp;lt;Muestra&amp;gt;" style="text;strokeColor=none;fillColor=none;align=left;verticalAlign=top;spacingLeft=4;spacingRight=4;overflow=hidden;rotatable=0;points=[[0,0.5],[1,0.5]];portConstraint=eastwest;whiteSpace=wrap;html=1;" parent="cjWLQR7C9Qx7QQM9_jkd-139" vertex="1">
          <mxGeometry y="26" width="320" height="26" as="geometry" />
        </mxCell>
        <mxCell id="cjWLQR7C9Qx7QQM9_jkd-144" value="+ zonas: ArrayList&amp;lt;ZonaDeCobetura&amp;gt;" style="text;strokeColor=none;fillColor=none;align=left;verticalAlign=top;spacingLeft=4;spacingRight=4;overflow=hidden;rotatable=0;points=[[0,0.5],[1,0.5]];portConstraint=eastwest;whiteSpace=wrap;html=1;" parent="cjWLQR7C9Qx7QQM9_jkd-139" vertex="1">
          <mxGeometry y="52" width="320" height="26" as="geometry" />
        </mxCell>
        <mxCell id="cjWLQR7C9Qx7QQM9_jkd-145" value="+ organizaciones: ArrayList&amp;lt;Organizacion&amp;gt;" style="text;strokeColor=none;fillColor=none;align=left;verticalAlign=top;spacingLeft=4;spacingRight=4;overflow=hidden;rotatable=0;points=[[0,0.5],[1,0.5]];portConstraint=eastwest;whiteSpace=wrap;html=1;" parent="cjWLQR7C9Qx7QQM9_jkd-139" vertex="1">
          <mxGeometry y="78" width="320" height="26" as="geometry" />
        </mxCell>
        <mxCell id="cjWLQR7C9Qx7QQM9_jkd-141" value="" style="line;strokeWidth=1;fillColor=none;align=left;verticalAlign=middle;spacingTop=-1;spacingLeft=3;spacingRight=3;rotatable=0;labelPosition=right;points=[];portConstraint=eastwest;strokeColor=inherit;" parent="cjWLQR7C9Qx7QQM9_jkd-139" vertex="1">
          <mxGeometry y="104" width="320" height="8" as="geometry" />
        </mxCell>
        <mxCell id="cjWLQR7C9Qx7QQM9_jkd-142" value="+ method(type): type" style="text;strokeColor=none;fillColor=none;align=left;verticalAlign=top;spacingLeft=4;spacingRight=4;overflow=hidden;rotatable=0;points=[[0,0.5],[1,0.5]];portConstraint=eastwest;whiteSpace=wrap;html=1;" parent="cjWLQR7C9Qx7QQM9_jkd-139" vertex="1">
          <mxGeometry y="112" width="320" height="26" as="geometry" />
        </mxCell>
        <mxCell id="cjWLQR7C9Qx7QQM9_jkd-146" value="Usuario" style="swimlane;fontStyle=1;align=center;verticalAlign=top;childLayout=stackLayout;horizontal=1;startSize=26;horizontalStack=0;resizeParent=1;resizeParentMax=0;resizeLast=0;collapsible=1;marginBottom=0;whiteSpace=wrap;html=1;fillColor=#dae8fc;strokeColor=#6c8ebf;" parent="1" vertex="1">
          <mxGeometry x="-230" y="1081" width="200" height="200" as="geometry" />
        </mxCell>
        <mxCell id="cjWLQR7C9Qx7QQM9_jkd-147" value="&lt;div&gt;-id&lt;/div&gt;&lt;div&gt;-username&lt;/div&gt;&lt;div&gt;&lt;br&gt;&lt;/div&gt;" style="text;strokeColor=none;fillColor=none;align=left;verticalAlign=top;spacingLeft=4;spacingRight=4;overflow=hidden;rotatable=0;points=[[0,0.5],[1,0.5]];portConstraint=eastwest;whiteSpace=wrap;html=1;" parent="cjWLQR7C9Qx7QQM9_jkd-146" vertex="1">
          <mxGeometry y="26" width="200" height="34" as="geometry" />
        </mxCell>
        <mxCell id="cjWLQR7C9Qx7QQM9_jkd-148" value="" style="line;strokeWidth=1;fillColor=none;align=left;verticalAlign=middle;spacingTop=-1;spacingLeft=3;spacingRight=3;rotatable=0;labelPosition=right;points=[];portConstraint=eastwest;strokeColor=inherit;" parent="cjWLQR7C9Qx7QQM9_jkd-146" vertex="1">
          <mxGeometry y="60" width="200" height="8" as="geometry" />
        </mxCell>
        <mxCell id="cjWLQR7C9Qx7QQM9_jkd-149" value="&lt;div&gt;+ darOpinion(muestra): void&lt;/div&gt;&lt;div&gt;+getState():EstadoUsuario&lt;/div&gt;" style="text;strokeColor=none;fillColor=none;align=left;verticalAlign=top;spacingLeft=4;spacingRight=4;overflow=hidden;rotatable=0;points=[[0,0.5],[1,0.5]];portConstraint=eastwest;whiteSpace=wrap;html=1;" parent="cjWLQR7C9Qx7QQM9_jkd-146" vertex="1">
          <mxGeometry y="68" width="200" height="42" as="geometry" />
        </mxCell>
        <mxCell id="cjWLQR7C9Qx7QQM9_jkd-151" value="&lt;div&gt;+ enviarMuestra(muestra): void&lt;/div&gt;&lt;div&gt;+cambiarEstado(state):void&lt;/div&gt;&lt;div&gt;+acutalizarEstado():void&lt;/div&gt;&lt;div&gt;+esExperto():boolean&lt;/div&gt;&lt;div&gt;+new(id, username):void&lt;br&gt;&lt;/div&gt;&lt;div&gt;&lt;br&gt;&lt;/div&gt;" style="text;strokeColor=none;fillColor=none;align=left;verticalAlign=top;spacingLeft=4;spacingRight=4;overflow=hidden;rotatable=0;points=[[0,0.5],[1,0.5]];portConstraint=eastwest;whiteSpace=wrap;html=1;" parent="cjWLQR7C9Qx7QQM9_jkd-146" vertex="1">
          <mxGeometry y="110" width="200" height="90" as="geometry" />
        </mxCell>
        <mxCell id="cjWLQR7C9Qx7QQM9_jkd-165" value="UsuarioExperto" style="swimlane;fontStyle=1;align=center;verticalAlign=top;childLayout=stackLayout;horizontal=1;startSize=26;horizontalStack=0;resizeParent=1;resizeParentMax=0;resizeLast=0;collapsible=1;marginBottom=0;whiteSpace=wrap;html=1;fillColor=#dae8fc;strokeColor=#6c8ebf;" parent="1" vertex="1">
          <mxGeometry x="40" y="1711" width="160" height="110" as="geometry" />
        </mxCell>
        <mxCell id="cjWLQR7C9Qx7QQM9_jkd-167" value="" style="line;strokeWidth=1;fillColor=none;align=left;verticalAlign=middle;spacingTop=-1;spacingLeft=3;spacingRight=3;rotatable=0;labelPosition=right;points=[];portConstraint=eastwest;strokeColor=inherit;" parent="cjWLQR7C9Qx7QQM9_jkd-165" vertex="1">
          <mxGeometry y="26" width="160" height="8" as="geometry" />
        </mxCell>
        <mxCell id="cjWLQR7C9Qx7QQM9_jkd-168" value="&lt;div&gt;+setState():void&lt;/div&gt;&lt;div&gt;+actualizarEstado():void&lt;/div&gt;&lt;div&gt;+esExperto():boolean&lt;/div&gt;&lt;div&gt;+new(user):void&lt;br&gt;&lt;/div&gt;" style="text;strokeColor=none;fillColor=none;align=left;verticalAlign=top;spacingLeft=4;spacingRight=4;overflow=hidden;rotatable=0;points=[[0,0.5],[1,0.5]];portConstraint=eastwest;whiteSpace=wrap;html=1;" parent="cjWLQR7C9Qx7QQM9_jkd-165" vertex="1">
          <mxGeometry y="34" width="160" height="76" as="geometry" />
        </mxCell>
        <mxCell id="cjWLQR7C9Qx7QQM9_jkd-169" value="UsuarioBasico" style="swimlane;fontStyle=1;align=center;verticalAlign=top;childLayout=stackLayout;horizontal=1;startSize=26;horizontalStack=0;resizeParent=1;resizeParentMax=0;resizeLast=0;collapsible=1;marginBottom=0;whiteSpace=wrap;html=1;fillColor=#dae8fc;strokeColor=#6c8ebf;" parent="1" vertex="1">
          <mxGeometry x="-370" y="1711" width="160" height="110" as="geometry" />
        </mxCell>
        <mxCell id="cjWLQR7C9Qx7QQM9_jkd-171" value="" style="line;strokeWidth=1;fillColor=none;align=left;verticalAlign=middle;spacingTop=-1;spacingLeft=3;spacingRight=3;rotatable=0;labelPosition=right;points=[];portConstraint=eastwest;strokeColor=inherit;" parent="cjWLQR7C9Qx7QQM9_jkd-169" vertex="1">
          <mxGeometry y="26" width="160" height="8" as="geometry" />
        </mxCell>
        <mxCell id="cjWLQR7C9Qx7QQM9_jkd-172" value="&lt;div&gt;+setState():void&lt;/div&gt;&lt;div&gt;+actualizarEstado():void&lt;/div&gt;&lt;div&gt;+esExperto():boolean&lt;/div&gt;&lt;div&gt;+new(user):void&lt;br&gt;&lt;/div&gt;" style="text;strokeColor=none;fillColor=none;align=left;verticalAlign=top;spacingLeft=4;spacingRight=4;overflow=hidden;rotatable=0;points=[[0,0.5],[1,0.5]];portConstraint=eastwest;whiteSpace=wrap;html=1;" parent="cjWLQR7C9Qx7QQM9_jkd-169" vertex="1">
          <mxGeometry y="34" width="160" height="76" as="geometry" />
        </mxCell>
        <mxCell id="cjWLQR7C9Qx7QQM9_jkd-179" value="UsuarioEspecialista" style="swimlane;fontStyle=1;align=center;verticalAlign=top;childLayout=stackLayout;horizontal=1;startSize=26;horizontalStack=0;resizeParent=1;resizeParentMax=0;resizeLast=0;collapsible=1;marginBottom=0;whiteSpace=wrap;html=1;" parent="1" vertex="1">
          <mxGeometry x="-590" y="1083" width="160" height="90" as="geometry" />
        </mxCell>
        <mxCell id="cjWLQR7C9Qx7QQM9_jkd-181" value="" style="line;strokeWidth=1;fillColor=none;align=left;verticalAlign=middle;spacingTop=-1;spacingLeft=3;spacingRight=3;rotatable=0;labelPosition=right;points=[];portConstraint=eastwest;strokeColor=inherit;" parent="cjWLQR7C9Qx7QQM9_jkd-179" vertex="1">
          <mxGeometry y="26" width="160" height="8" as="geometry" />
        </mxCell>
        <mxCell id="cjWLQR7C9Qx7QQM9_jkd-182" value="&lt;div&gt;+actualizarEstado():void&lt;/div&gt;&lt;div&gt;+new(id, username):void&lt;br&gt;&lt;/div&gt;" style="text;strokeColor=none;fillColor=none;align=left;verticalAlign=top;spacingLeft=4;spacingRight=4;overflow=hidden;rotatable=0;points=[[0,0.5],[1,0.5]];portConstraint=eastwest;whiteSpace=wrap;html=1;" parent="cjWLQR7C9Qx7QQM9_jkd-179" vertex="1">
          <mxGeometry y="34" width="160" height="56" as="geometry" />
        </mxCell>
        <mxCell id="dOL37KlRLSiU1scWst8k-1" value="Extends" style="endArrow=block;endSize=16;endFill=0;html=1;rounded=0;" parent="1" edge="1">
          <mxGeometry width="160" relative="1" as="geometry">
            <mxPoint x="-430" y="1120" as="sourcePoint" />
            <mxPoint x="-230" y="1120" as="targetPoint" />
          </mxGeometry>
        </mxCell>
        <mxCell id="dOL37KlRLSiU1scWst8k-3" value="EstadoUsuario" style="swimlane;fontStyle=3;align=center;verticalAlign=top;childLayout=stackLayout;horizontal=1;startSize=26;horizontalStack=0;resizeParent=1;resizeParentMax=0;resizeLast=0;collapsible=1;marginBottom=0;whiteSpace=wrap;html=1;fillColor=#dae8fc;strokeColor=#6c8ebf;" parent="1" vertex="1">
          <mxGeometry x="-210" y="1390" width="250" height="170" as="geometry" />
        </mxCell>
        <mxCell id="dOL37KlRLSiU1scWst8k-4" value="-user" style="text;strokeColor=none;fillColor=none;align=left;verticalAlign=top;spacingLeft=4;spacingRight=4;overflow=hidden;rotatable=0;points=[[0,0.5],[1,0.5]];portConstraint=eastwest;whiteSpace=wrap;html=1;" parent="dOL37KlRLSiU1scWst8k-3" vertex="1">
          <mxGeometry y="26" width="250" height="26" as="geometry" />
        </mxCell>
        <mxCell id="dOL37KlRLSiU1scWst8k-5" value="" style="line;strokeWidth=1;fillColor=none;align=left;verticalAlign=middle;spacingTop=-1;spacingLeft=3;spacingRight=3;rotatable=0;labelPosition=right;points=[];portConstraint=eastwest;strokeColor=inherit;" parent="dOL37KlRLSiU1scWst8k-3" vertex="1">
          <mxGeometry y="52" width="250" height="8" as="geometry" />
        </mxCell>
        <mxCell id="dOL37KlRLSiU1scWst8k-6" value="&lt;div&gt;+setState():void&lt;/div&gt;&lt;div&gt;+getUser():Usuario&lt;/div&gt;&lt;div&gt;+actualizarEstado(cantMuestrasEnviadas, cantMuestrasOpinadas):void&lt;/div&gt;&lt;div&gt;+esExperto():boolean&lt;br&gt;&lt;/div&gt;" style="text;strokeColor=none;fillColor=none;align=left;verticalAlign=top;spacingLeft=4;spacingRight=4;overflow=hidden;rotatable=0;points=[[0,0.5],[1,0.5]];portConstraint=eastwest;whiteSpace=wrap;html=1;" parent="dOL37KlRLSiU1scWst8k-3" vertex="1">
          <mxGeometry y="60" width="250" height="110" as="geometry" />
        </mxCell>
        <mxCell id="dOL37KlRLSiU1scWst8k-9" value="state" style="endArrow=block;endFill=1;html=1;edgeStyle=orthogonalEdgeStyle;align=left;verticalAlign=top;rounded=0;exitX=0.485;exitY=1.021;exitDx=0;exitDy=0;exitPerimeter=0;" parent="1" source="cjWLQR7C9Qx7QQM9_jkd-151" edge="1">
          <mxGeometry x="-0.6498" y="15" relative="1" as="geometry">
            <mxPoint x="-126" y="1290" as="sourcePoint" />
            <mxPoint x="-135" y="1390" as="targetPoint" />
            <Array as="points">
              <mxPoint x="-135" y="1283" />
            </Array>
            <mxPoint as="offset" />
          </mxGeometry>
        </mxCell>
        <mxCell id="dOL37KlRLSiU1scWst8k-10" value="1" style="edgeLabel;resizable=0;html=1;align=left;verticalAlign=bottom;" parent="dOL37KlRLSiU1scWst8k-9" connectable="0" vertex="1">
          <mxGeometry x="-1" relative="1" as="geometry">
            <mxPoint x="13" y="94" as="offset" />
          </mxGeometry>
        </mxCell>
        <mxCell id="dOL37KlRLSiU1scWst8k-15" value="MuestraNoVerificada" style="swimlane;fontStyle=1;align=center;verticalAlign=top;childLayout=stackLayout;horizontal=1;startSize=26;horizontalStack=0;resizeParent=1;resizeParentMax=0;resizeLast=0;collapsible=1;marginBottom=0;whiteSpace=wrap;html=1;fillColor=#dae8fc;strokeColor=#6c8ebf;" parent="1" vertex="1">
          <mxGeometry x="-5" y="110" width="160" height="120" as="geometry" />
        </mxCell>
        <mxCell id="dOL37KlRLSiU1scWst8k-16" value="-muestra" style="text;strokeColor=none;fillColor=none;align=left;verticalAlign=top;spacingLeft=4;spacingRight=4;overflow=hidden;rotatable=0;points=[[0,0.5],[1,0.5]];portConstraint=eastwest;whiteSpace=wrap;html=1;" parent="dOL37KlRLSiU1scWst8k-15" vertex="1">
          <mxGeometry y="26" width="160" height="26" as="geometry" />
        </mxCell>
        <mxCell id="dOL37KlRLSiU1scWst8k-17" value="" style="line;strokeWidth=1;fillColor=none;align=left;verticalAlign=middle;spacingTop=-1;spacingLeft=3;spacingRight=3;rotatable=0;labelPosition=right;points=[];portConstraint=eastwest;strokeColor=inherit;" parent="dOL37KlRLSiU1scWst8k-15" vertex="1">
          <mxGeometry y="52" width="160" height="8" as="geometry" />
        </mxCell>
        <mxCell id="dOL37KlRLSiU1scWst8k-18" value="&lt;div&gt;+esVerificada():boolean&lt;/div&gt;&lt;div&gt;+agregarOpinion():void&lt;/div&gt;&lt;div&gt;+new(meustra):void&lt;br&gt;&lt;/div&gt;" style="text;strokeColor=none;fillColor=none;align=left;verticalAlign=top;spacingLeft=4;spacingRight=4;overflow=hidden;rotatable=0;points=[[0,0.5],[1,0.5]];portConstraint=eastwest;whiteSpace=wrap;html=1;" parent="dOL37KlRLSiU1scWst8k-15" vertex="1">
          <mxGeometry y="60" width="160" height="60" as="geometry" />
        </mxCell>
        <mxCell id="dOL37KlRLSiU1scWst8k-19" value="MuestraVerificada" style="swimlane;fontStyle=1;align=center;verticalAlign=top;childLayout=stackLayout;horizontal=1;startSize=26;horizontalStack=0;resizeParent=1;resizeParentMax=0;resizeLast=0;collapsible=1;marginBottom=0;whiteSpace=wrap;html=1;fillColor=#dae8fc;strokeColor=#6c8ebf;" parent="1" vertex="1">
          <mxGeometry x="-325" y="114" width="160" height="110" as="geometry" />
        </mxCell>
        <mxCell id="dOL37KlRLSiU1scWst8k-20" value="+ field: type" style="text;strokeColor=none;fillColor=none;align=left;verticalAlign=top;spacingLeft=4;spacingRight=4;overflow=hidden;rotatable=0;points=[[0,0.5],[1,0.5]];portConstraint=eastwest;whiteSpace=wrap;html=1;" parent="dOL37KlRLSiU1scWst8k-19" vertex="1">
          <mxGeometry y="26" width="160" height="26" as="geometry" />
        </mxCell>
        <mxCell id="dOL37KlRLSiU1scWst8k-21" value="" style="line;strokeWidth=1;fillColor=none;align=left;verticalAlign=middle;spacingTop=-1;spacingLeft=3;spacingRight=3;rotatable=0;labelPosition=right;points=[];portConstraint=eastwest;strokeColor=inherit;" parent="dOL37KlRLSiU1scWst8k-19" vertex="1">
          <mxGeometry y="52" width="160" height="8" as="geometry" />
        </mxCell>
        <mxCell id="dOL37KlRLSiU1scWst8k-22" value="&lt;div&gt;+esVerificada():boolean&lt;/div&gt;&lt;div&gt;+agregarOpinion():void&lt;br&gt;&lt;/div&gt;" style="text;strokeColor=none;fillColor=none;align=left;verticalAlign=top;spacingLeft=4;spacingRight=4;overflow=hidden;rotatable=0;points=[[0,0.5],[1,0.5]];portConstraint=eastwest;whiteSpace=wrap;html=1;" parent="dOL37KlRLSiU1scWst8k-19" vertex="1">
          <mxGeometry y="60" width="160" height="50" as="geometry" />
        </mxCell>
        <mxCell id="dOL37KlRLSiU1scWst8k-23" value="estado" style="endArrow=block;endFill=1;html=1;edgeStyle=orthogonalEdgeStyle;align=left;verticalAlign=top;rounded=0;exitX=0.5;exitY=0;exitDx=0;exitDy=0;" parent="1" edge="1">
          <mxGeometry x="-0.4029" y="50" relative="1" as="geometry">
            <mxPoint x="-82.44" y="585" as="sourcePoint" />
            <mxPoint x="-90" y="450" as="targetPoint" />
            <Array as="points">
              <mxPoint x="-90" y="585" />
            </Array>
            <mxPoint as="offset" />
          </mxGeometry>
        </mxCell>
        <mxCell id="dOL37KlRLSiU1scWst8k-24" value="1" style="edgeLabel;resizable=0;html=1;align=left;verticalAlign=bottom;" parent="dOL37KlRLSiU1scWst8k-23" connectable="0" vertex="1">
          <mxGeometry x="-1" relative="1" as="geometry">
            <mxPoint x="-38" y="-105" as="offset" />
          </mxGeometry>
        </mxCell>
        <mxCell id="dOL37KlRLSiU1scWst8k-29" value="STATE" style="text;align=center;fontStyle=1;verticalAlign=middle;spacingLeft=3;spacingRight=3;strokeColor=none;rotatable=0;points=[[0,0.5],[1,0.5]];portConstraint=eastwest;html=1;" parent="1" vertex="1">
          <mxGeometry x="-170" y="320" width="80" height="26" as="geometry" />
        </mxCell>
        <mxCell id="dOL37KlRLSiU1scWst8k-30" value="CONCRETE_STATE" style="text;align=center;fontStyle=1;verticalAlign=middle;spacingLeft=3;spacingRight=3;strokeColor=none;rotatable=0;points=[[0,0.5],[1,0.5]];portConstraint=eastwest;html=1;" parent="1" vertex="1">
          <mxGeometry x="-360" y="1685" width="80" height="26" as="geometry" />
        </mxCell>
        <mxCell id="dOL37KlRLSiU1scWst8k-31" value="CONTEXT" style="text;align=center;fontStyle=1;verticalAlign=middle;spacingLeft=3;spacingRight=3;strokeColor=none;rotatable=0;points=[[0,0.5],[1,0.5]];portConstraint=eastwest;html=1;" parent="1" vertex="1">
          <mxGeometry x="-240" y="1057" width="80" height="26" as="geometry" />
        </mxCell>
        <mxCell id="dOL37KlRLSiU1scWst8k-32" value="STATE" style="text;align=center;fontStyle=1;verticalAlign=middle;spacingLeft=3;spacingRight=3;strokeColor=none;rotatable=0;points=[[0,0.5],[1,0.5]];portConstraint=eastwest;html=1;" parent="1" vertex="1">
          <mxGeometry x="-230" y="1364" width="80" height="26" as="geometry" />
        </mxCell>
        <mxCell id="dOL37KlRLSiU1scWst8k-33" value="CONCRETE_STATE" style="text;align=center;fontStyle=1;verticalAlign=middle;spacingLeft=3;spacingRight=3;strokeColor=none;rotatable=0;points=[[0,0.5],[1,0.5]];portConstraint=eastwest;html=1;" parent="1" vertex="1">
          <mxGeometry x="10" y="88" width="80" height="26" as="geometry" />
        </mxCell>
        <mxCell id="dOL37KlRLSiU1scWst8k-34" value="CONCRETE_STATE" style="text;align=center;fontStyle=1;verticalAlign=middle;spacingLeft=3;spacingRight=3;strokeColor=none;rotatable=0;points=[[0,0.5],[1,0.5]];portConstraint=eastwest;html=1;" parent="1" vertex="1">
          <mxGeometry x="110" y="1690" width="80" height="26" as="geometry" />
        </mxCell>
        <mxCell id="hyYSvlUBGf9WrgOdkNEH-1" value="usuarios" style="endArrow=block;endFill=1;html=1;edgeStyle=orthogonalEdgeStyle;align=left;verticalAlign=top;rounded=0;exitX=0.012;exitY=-0.179;exitDx=0;exitDy=0;exitPerimeter=0;entryX=1.005;entryY=0.136;entryDx=0;entryDy=0;entryPerimeter=0;" parent="1" source="cjWLQR7C9Qx7QQM9_jkd-145" target="cjWLQR7C9Qx7QQM9_jkd-146" edge="1">
          <mxGeometry x="-0.3904" y="-29" relative="1" as="geometry">
            <mxPoint x="10" y="1080" as="sourcePoint" />
            <mxPoint x="170" y="1080" as="targetPoint" />
            <mxPoint as="offset" />
          </mxGeometry>
        </mxCell>
        <mxCell id="hyYSvlUBGf9WrgOdkNEH-2" value="*" style="edgeLabel;resizable=0;html=1;align=left;verticalAlign=bottom;" parent="hyYSvlUBGf9WrgOdkNEH-1" connectable="0" vertex="1">
          <mxGeometry x="-1" relative="1" as="geometry">
            <mxPoint x="-204" y="-8" as="offset" />
          </mxGeometry>
        </mxCell>
        <mxCell id="hyYSvlUBGf9WrgOdkNEH-3" value="muestras" style="endArrow=block;endFill=1;html=1;edgeStyle=orthogonalEdgeStyle;align=left;verticalAlign=top;rounded=0;exitX=0;exitY=0;exitDx=0;exitDy=0;entryX=1.013;entryY=0.844;entryDx=0;entryDy=0;entryPerimeter=0;" parent="1" source="cjWLQR7C9Qx7QQM9_jkd-139" target="cjWLQR7C9Qx7QQM9_jkd-99" edge="1">
          <mxGeometry x="-0.8449" y="50" relative="1" as="geometry">
            <mxPoint x="10" y="940" as="sourcePoint" />
            <mxPoint x="170" y="940" as="targetPoint" />
            <mxPoint as="offset" />
          </mxGeometry>
        </mxCell>
        <mxCell id="hyYSvlUBGf9WrgOdkNEH-4" value="*" style="edgeLabel;resizable=0;html=1;align=left;verticalAlign=bottom;" parent="hyYSvlUBGf9WrgOdkNEH-3" connectable="0" vertex="1">
          <mxGeometry x="-1" relative="1" as="geometry">
            <mxPoint x="-180" y="-79" as="offset" />
          </mxGeometry>
        </mxCell>
        <mxCell id="hyYSvlUBGf9WrgOdkNEH-5" value="State" style="shape=module;align=left;spacingLeft=20;align=center;verticalAlign=top;whiteSpace=wrap;html=1;fillColor=#dae8fc;strokeColor=#6c8ebf;" parent="1" vertex="1">
          <mxGeometry x="40" y="1237" width="100" height="50" as="geometry" />
        </mxCell>
        <mxCell id="hyYSvlUBGf9WrgOdkNEH-7" value="State" style="shape=module;align=left;spacingLeft=20;align=center;verticalAlign=top;whiteSpace=wrap;html=1;fillColor=#dae8fc;strokeColor=#6c8ebf;" parent="1" vertex="1">
          <mxGeometry x="110" y="585" width="100" height="50" as="geometry" />
        </mxCell>
        <mxCell id="hyYSvlUBGf9WrgOdkNEH-8" value="CONTEXT" style="text;align=center;fontStyle=1;verticalAlign=middle;spacingLeft=3;spacingRight=3;strokeColor=none;rotatable=0;points=[[0,0.5],[1,0.5]];portConstraint=eastwest;html=1;" parent="1" vertex="1">
          <mxGeometry x="-50" y="560" width="80" height="26" as="geometry" />
        </mxCell>
        <mxCell id="hyYSvlUBGf9WrgOdkNEH-12" value="Extends" style="endArrow=block;endSize=16;endFill=0;html=1;rounded=0;exitX=0;exitY=0;exitDx=0;exitDy=0;" parent="1" source="cjWLQR7C9Qx7QQM9_jkd-165" edge="1">
          <mxGeometry width="160" relative="1" as="geometry">
            <mxPoint x="-170" y="1670" as="sourcePoint" />
            <mxPoint x="40" y="1560" as="targetPoint" />
          </mxGeometry>
        </mxCell>
        <mxCell id="hyYSvlUBGf9WrgOdkNEH-13" value="Extends" style="endArrow=block;endSize=16;endFill=0;html=1;rounded=0;entryX=-0.004;entryY=1.036;entryDx=0;entryDy=0;entryPerimeter=0;exitX=1;exitY=0;exitDx=0;exitDy=0;" parent="1" source="cjWLQR7C9Qx7QQM9_jkd-169" target="dOL37KlRLSiU1scWst8k-6" edge="1">
          <mxGeometry width="160" relative="1" as="geometry">
            <mxPoint x="-170" y="1670" as="sourcePoint" />
            <mxPoint x="-10" y="1670" as="targetPoint" />
          </mxGeometry>
        </mxCell>
        <mxCell id="dOL37KlRLSiU1scWst8k-28" value="CONCRETE_STATE" style="text;align=center;fontStyle=1;verticalAlign=middle;spacingLeft=3;spacingRight=3;strokeColor=none;rotatable=0;points=[[0,0.5],[1,0.5]];portConstraint=eastwest;html=1;" parent="1" vertex="1">
          <mxGeometry x="-350" y="90" width="160" height="26" as="geometry" />
        </mxCell>
        <mxCell id="hyYSvlUBGf9WrgOdkNEH-15" value="Opinion" style="swimlane;fontStyle=1;align=center;verticalAlign=top;childLayout=stackLayout;horizontal=1;startSize=26;horizontalStack=0;resizeParent=1;resizeParentMax=0;resizeLast=0;collapsible=1;marginBottom=0;whiteSpace=wrap;html=1;" parent="1" vertex="1">
          <mxGeometry x="-690" y="585" width="160" height="160" as="geometry" />
        </mxCell>
        <mxCell id="hyYSvlUBGf9WrgOdkNEH-16" value="&lt;div&gt;-opinion&lt;/div&gt;&lt;div&gt;-fechaPublicacion&lt;/div&gt;&lt;div&gt;-usuario&lt;br&gt;&lt;/div&gt;" style="text;strokeColor=none;fillColor=none;align=left;verticalAlign=top;spacingLeft=4;spacingRight=4;overflow=hidden;rotatable=0;points=[[0,0.5],[1,0.5]];portConstraint=eastwest;whiteSpace=wrap;html=1;" parent="hyYSvlUBGf9WrgOdkNEH-15" vertex="1">
          <mxGeometry y="26" width="160" height="54" as="geometry" />
        </mxCell>
        <mxCell id="hyYSvlUBGf9WrgOdkNEH-17" value="" style="line;strokeWidth=1;fillColor=none;align=left;verticalAlign=middle;spacingTop=-1;spacingLeft=3;spacingRight=3;rotatable=0;labelPosition=right;points=[];portConstraint=eastwest;strokeColor=inherit;" parent="hyYSvlUBGf9WrgOdkNEH-15" vertex="1">
          <mxGeometry y="80" width="160" height="8" as="geometry" />
        </mxCell>
        <mxCell id="hyYSvlUBGf9WrgOdkNEH-18" value="&lt;div&gt;+getFechaPublicacion():LocalDate&lt;/div&gt;&lt;div&gt;+getOpinion():OpinionImagen&lt;/div&gt;&lt;div&gt;+getUsuario():Usuario()&lt;/div&gt;" style="text;strokeColor=none;fillColor=none;align=left;verticalAlign=top;spacingLeft=4;spacingRight=4;overflow=hidden;rotatable=0;points=[[0,0.5],[1,0.5]];portConstraint=eastwest;whiteSpace=wrap;html=1;" parent="hyYSvlUBGf9WrgOdkNEH-15" vertex="1">
          <mxGeometry y="88" width="160" height="72" as="geometry" />
        </mxCell>
        <mxCell id="hyYSvlUBGf9WrgOdkNEH-21" value="opiniones" style="endArrow=block;endFill=1;html=1;edgeStyle=orthogonalEdgeStyle;align=left;verticalAlign=top;rounded=0;exitX=-0.01;exitY=0.056;exitDx=0;exitDy=0;exitPerimeter=0;entryX=1.021;entryY=0.163;entryDx=0;entryDy=0;entryPerimeter=0;" parent="1" target="hyYSvlUBGf9WrgOdkNEH-16" edge="1">
          <mxGeometry x="-0.641" y="15" relative="1" as="geometry">
            <mxPoint x="-182.07999999999993" y="610.4199999999998" as="sourcePoint" />
            <mxPoint x="-500" y="620" as="targetPoint" />
            <Array as="points">
              <mxPoint x="-182" y="615" />
            </Array>
            <mxPoint as="offset" />
          </mxGeometry>
        </mxCell>
        <mxCell id="hyYSvlUBGf9WrgOdkNEH-22" value="*" style="edgeLabel;resizable=0;html=1;align=left;verticalAlign=bottom;" parent="hyYSvlUBGf9WrgOdkNEH-21" connectable="0" vertex="1">
          <mxGeometry x="-1" relative="1" as="geometry">
            <mxPoint x="-328" y="8" as="offset" />
          </mxGeometry>
        </mxCell>
        <mxCell id="LamiG5945iya5oc63--S-2" value="&lt;p style=&quot;margin:0px;margin-top:4px;text-align:center;&quot;&gt;&lt;i&gt;List&amp;lt;Muestra&amp;gt; filtrar&lt;/i&gt;&lt;br&gt;&lt;i&gt;&amp;lt;&amp;lt;Interface&amp;gt;&amp;gt;&lt;/i&gt;&lt;br&gt;&lt;b&gt;IBuscadorMuestras&lt;/b&gt;&lt;/p&gt;&lt;hr size=&quot;1&quot;&gt;&lt;p style=&quot;margin:0px;margin-left:4px;&quot;&gt;+filtrar (List&amp;lt;Muestra&amp;gt;): List &amp;lt;Muestra&amp;gt;&lt;/p&gt;" style="verticalAlign=top;align=left;overflow=fill;fontSize=12;fontFamily=Helvetica;html=1;whiteSpace=wrap;fillColor=#6a00ff;fontColor=#ffffff;strokeColor=#3700CC;" parent="1" vertex="1">
          <mxGeometry x="400" y="520" width="240" height="100" as="geometry" />
        </mxCell>
        <mxCell id="LamiG5945iya5oc63--S-3" value="BuscadorMuestras" style="endArrow=block;endFill=1;html=1;edgeStyle=orthogonalEdgeStyle;align=left;verticalAlign=top;rounded=0;entryX=-0.017;entryY=0.44;entryDx=0;entryDy=0;entryPerimeter=0;exitX=0.5;exitY=0;exitDx=0;exitDy=0;" parent="1" source="cjWLQR7C9Qx7QQM9_jkd-139" target="LamiG5945iya5oc63--S-2" edge="1">
          <mxGeometry x="-0.7467" y="50" relative="1" as="geometry">
            <mxPoint x="380" y="770" as="sourcePoint" />
            <mxPoint x="590" y="800" as="targetPoint" />
            <Array as="points">
              <mxPoint x="340" y="564" />
            </Array>
            <mxPoint as="offset" />
          </mxGeometry>
        </mxCell>
        <mxCell id="LamiG5945iya5oc63--S-4" value="1" style="edgeLabel;resizable=0;html=1;align=left;verticalAlign=bottom;" parent="LamiG5945iya5oc63--S-3" connectable="0" vertex="1">
          <mxGeometry x="-1" relative="1" as="geometry">
            <mxPoint x="40" y="-450" as="offset" />
          </mxGeometry>
        </mxCell>
        <mxCell id="LamiG5945iya5oc63--S-5" value="BuscadorCompuesto" style="swimlane;fontStyle=1;align=center;verticalAlign=top;childLayout=stackLayout;horizontal=1;startSize=26;horizontalStack=0;resizeParent=1;resizeParentMax=0;resizeLast=0;collapsible=1;marginBottom=0;whiteSpace=wrap;html=1;fillColor=#6a00ff;fontColor=#ffffff;strokeColor=#3700CC;" parent="1" vertex="1">
          <mxGeometry x="395" y="40" width="250" height="130" as="geometry" />
        </mxCell>
        <mxCell id="LamiG5945iya5oc63--S-7" value="" style="line;strokeWidth=1;fillColor=none;align=left;verticalAlign=middle;spacingTop=-1;spacingLeft=3;spacingRight=3;rotatable=0;labelPosition=right;points=[];portConstraint=eastwest;strokeColor=inherit;" parent="LamiG5945iya5oc63--S-5" vertex="1">
          <mxGeometry y="26" width="250" height="8" as="geometry" />
        </mxCell>
        <mxCell id="LamiG5945iya5oc63--S-8" value="+filtrar (List&amp;lt;Muestra&amp;gt;): List &amp;lt;Muestra&amp;gt;&lt;br&gt;&lt;br&gt;+addBuscadores(IBuscadorMuestra):&lt;br&gt;&lt;br&gt;+removeBuscadores(IBuscadorMuestra);" style="text;strokeColor=none;fillColor=none;align=left;verticalAlign=top;spacingLeft=4;spacingRight=4;overflow=hidden;rotatable=0;points=[[0,0.5],[1,0.5]];portConstraint=eastwest;whiteSpace=wrap;html=1;" parent="LamiG5945iya5oc63--S-5" vertex="1">
          <mxGeometry y="34" width="250" height="96" as="geometry" />
        </mxCell>
        <mxCell id="LamiG5945iya5oc63--S-10" value="" style="endArrow=block;dashed=1;endFill=0;endSize=12;html=1;rounded=0;entryX=0.5;entryY=0;entryDx=0;entryDy=0;" parent="1" target="LamiG5945iya5oc63--S-2" edge="1">
          <mxGeometry width="160" relative="1" as="geometry">
            <mxPoint x="520" y="170" as="sourcePoint" />
            <mxPoint x="590" y="400" as="targetPoint" />
          </mxGeometry>
        </mxCell>
        <mxCell id="LamiG5945iya5oc63--S-11" value="" style="endArrow=diamondThin;endFill=0;endSize=24;html=1;rounded=0;exitX=0;exitY=0;exitDx=0;exitDy=0;entryX=0;entryY=0.5;entryDx=0;entryDy=0;" parent="1" source="LamiG5945iya5oc63--S-2" target="LamiG5945iya5oc63--S-8" edge="1">
          <mxGeometry width="160" relative="1" as="geometry">
            <mxPoint x="430" y="400" as="sourcePoint" />
            <mxPoint x="590" y="400" as="targetPoint" />
            <Array as="points">
              <mxPoint x="240" y="520" />
              <mxPoint x="240" y="120" />
            </Array>
          </mxGeometry>
        </mxCell>
        <mxCell id="LamiG5945iya5oc63--S-12" value="BuscadoresMuestras&lt;br&gt;" style="text;html=1;align=center;verticalAlign=middle;resizable=0;points=[];autosize=1;strokeColor=none;fillColor=none;" parent="1" vertex="1">
          <mxGeometry x="230" y="100" width="140" height="30" as="geometry" />
        </mxCell>
        <mxCell id="LamiG5945iya5oc63--S-13" value="Composite&lt;br&gt;" style="shape=module;align=left;spacingLeft=20;align=center;verticalAlign=top;whiteSpace=wrap;html=1;fillColor=#6a00ff;fontColor=#ffffff;strokeColor=#3700CC;" parent="1" vertex="1">
          <mxGeometry x="295" y="250" width="100" height="50" as="geometry" />
        </mxCell>
        <mxCell id="LamiG5945iya5oc63--S-14" value="&amp;lt;&amp;lt;Abstract&amp;gt;&amp;gt;&lt;br&gt;BuscadorLogico&lt;br&gt;" style="swimlane;fontStyle=1;align=center;verticalAlign=top;childLayout=stackLayout;horizontal=1;startSize=36;horizontalStack=0;resizeParent=1;resizeParentMax=0;resizeLast=0;collapsible=1;marginBottom=0;whiteSpace=wrap;html=1;fillColor=#6a00ff;fontColor=#ffffff;strokeColor=#3700CC;" parent="1" vertex="1">
          <mxGeometry x="950" y="40" width="270" height="106" as="geometry" />
        </mxCell>
        <mxCell id="LamiG5945iya5oc63--S-16" value="" style="line;strokeWidth=1;fillColor=none;align=left;verticalAlign=middle;spacingTop=-1;spacingLeft=3;spacingRight=3;rotatable=0;labelPosition=right;points=[];portConstraint=eastwest;strokeColor=inherit;" parent="LamiG5945iya5oc63--S-14" vertex="1">
          <mxGeometry y="36" width="270" height="4" as="geometry" />
        </mxCell>
        <mxCell id="LamiG5945iya5oc63--S-17" value="+ new(IBuscadorMuestras, IBuscadorMuestras)&lt;br&gt;&lt;br&gt;+ filtrar (List&amp;lt;Muestra&amp;gt;): List &amp;lt;Muestra&amp;gt;" style="text;strokeColor=none;fillColor=none;align=left;verticalAlign=top;spacingLeft=4;spacingRight=4;overflow=hidden;rotatable=0;points=[[0,0.5],[1,0.5]];portConstraint=eastwest;whiteSpace=wrap;html=1;" parent="LamiG5945iya5oc63--S-14" vertex="1">
          <mxGeometry y="40" width="270" height="66" as="geometry" />
        </mxCell>
        <mxCell id="LamiG5945iya5oc63--S-23" value="FiltroBusqueda1" style="text;html=1;align=center;verticalAlign=middle;resizable=0;points=[];autosize=1;strokeColor=none;fillColor=none;rotation=315;flipV=1;flipH=1;" parent="1" vertex="1">
          <mxGeometry x="630" y="394" width="110" height="30" as="geometry" />
        </mxCell>
        <mxCell id="LamiG5945iya5oc63--S-22" value="FiltroBusqueda2" style="text;html=1;align=center;verticalAlign=middle;resizable=0;points=[];autosize=1;strokeColor=none;fillColor=none;rotation=315;" parent="1" vertex="1">
          <mxGeometry x="710" y="310" width="110" height="30" as="geometry" />
        </mxCell>
        <mxCell id="LamiG5945iya5oc63--S-25" value="" style="endArrow=block;dashed=1;endFill=0;endSize=12;html=1;rounded=0;exitX=0.185;exitY=1.061;exitDx=0;exitDy=0;exitPerimeter=0;entryX=1;entryY=0;entryDx=0;entryDy=0;" parent="1" source="LamiG5945iya5oc63--S-17" target="LamiG5945iya5oc63--S-2" edge="1">
          <mxGeometry width="160" relative="1" as="geometry">
            <mxPoint x="800" y="400" as="sourcePoint" />
            <mxPoint x="960" y="400" as="targetPoint" />
          </mxGeometry>
        </mxCell>
        <mxCell id="LamiG5945iya5oc63--S-26" value="BuscadorAnd" style="swimlane;fontStyle=1;align=center;verticalAlign=top;childLayout=stackLayout;horizontal=1;startSize=26;horizontalStack=0;resizeParent=1;resizeParentMax=0;resizeLast=0;collapsible=1;marginBottom=0;whiteSpace=wrap;html=1;fillColor=#6a00ff;fontColor=#ffffff;strokeColor=#3700CC;" parent="1" vertex="1">
          <mxGeometry x="1320" y="-170" width="280" height="110" as="geometry" />
        </mxCell>
        <mxCell id="LamiG5945iya5oc63--S-28" value="" style="line;strokeWidth=1;fillColor=none;align=left;verticalAlign=middle;spacingTop=-1;spacingLeft=3;spacingRight=3;rotatable=0;labelPosition=right;points=[];portConstraint=eastwest;strokeColor=inherit;" parent="LamiG5945iya5oc63--S-26" vertex="1">
          <mxGeometry y="26" width="280" height="8" as="geometry" />
        </mxCell>
        <mxCell id="LamiG5945iya5oc63--S-29" value="+ new(IBuscadorMuestras, IBuscadorMuestras)&lt;br&gt;&lt;br&gt;+ filtrar (List&amp;lt;Muestra&amp;gt;): List &amp;lt;Muestra&amp;gt;" style="text;strokeColor=none;fillColor=none;align=left;verticalAlign=top;spacingLeft=4;spacingRight=4;overflow=hidden;rotatable=0;points=[[0,0.5],[1,0.5]];portConstraint=eastwest;whiteSpace=wrap;html=1;" parent="LamiG5945iya5oc63--S-26" vertex="1">
          <mxGeometry y="34" width="280" height="76" as="geometry" />
        </mxCell>
        <mxCell id="LamiG5945iya5oc63--S-30" value="Extends" style="endArrow=block;endSize=16;endFill=0;html=1;rounded=0;exitX=0.011;exitY=1.039;exitDx=0;exitDy=0;exitPerimeter=0;entryX=1;entryY=0;entryDx=0;entryDy=0;" parent="1" source="LamiG5945iya5oc63--S-29" target="LamiG5945iya5oc63--S-14" edge="1">
          <mxGeometry width="160" relative="1" as="geometry">
            <mxPoint x="1200" y="100" as="sourcePoint" />
            <mxPoint x="1360" y="100" as="targetPoint" />
          </mxGeometry>
        </mxCell>
        <mxCell id="LamiG5945iya5oc63--S-31" value="BuscadorOr" style="swimlane;fontStyle=1;align=center;verticalAlign=top;childLayout=stackLayout;horizontal=1;startSize=26;horizontalStack=0;resizeParent=1;resizeParentMax=0;resizeLast=0;collapsible=1;marginBottom=0;whiteSpace=wrap;html=1;fillColor=#6a00ff;fontColor=#ffffff;strokeColor=#3700CC;" parent="1" vertex="1">
          <mxGeometry x="1320" y="130" width="280" height="110" as="geometry" />
        </mxCell>
        <mxCell id="LamiG5945iya5oc63--S-32" value="" style="line;strokeWidth=1;fillColor=none;align=left;verticalAlign=middle;spacingTop=-1;spacingLeft=3;spacingRight=3;rotatable=0;labelPosition=right;points=[];portConstraint=eastwest;strokeColor=inherit;" parent="LamiG5945iya5oc63--S-31" vertex="1">
          <mxGeometry y="26" width="280" height="8" as="geometry" />
        </mxCell>
        <mxCell id="LamiG5945iya5oc63--S-33" value="+ new(IBuscadorMuestras, IBuscadorMuestras)&lt;br&gt;&lt;br&gt;+ filtrar (List&amp;lt;Muestra&amp;gt;): List &amp;lt;Muestra&amp;gt;" style="text;strokeColor=none;fillColor=none;align=left;verticalAlign=top;spacingLeft=4;spacingRight=4;overflow=hidden;rotatable=0;points=[[0,0.5],[1,0.5]];portConstraint=eastwest;whiteSpace=wrap;html=1;" parent="LamiG5945iya5oc63--S-31" vertex="1">
          <mxGeometry y="34" width="280" height="76" as="geometry" />
        </mxCell>
        <mxCell id="LamiG5945iya5oc63--S-34" value="Extends" style="endArrow=block;endSize=16;endFill=0;html=1;rounded=0;exitX=0;exitY=0.5;exitDx=0;exitDy=0;entryX=1;entryY=1.061;entryDx=0;entryDy=0;entryPerimeter=0;" parent="1" source="LamiG5945iya5oc63--S-33" target="LamiG5945iya5oc63--S-17" edge="1">
          <mxGeometry width="160" relative="1" as="geometry">
            <mxPoint x="1333" y="-47" as="sourcePoint" />
            <mxPoint x="1210" y="47" as="targetPoint" />
          </mxGeometry>
        </mxCell>
        <mxCell id="LamiG5945iya5oc63--S-39" value="&lt;br&gt;" style="endArrow=block;endFill=1;html=1;align=left;verticalAlign=top;rounded=0;exitX=0.004;exitY=1.015;exitDx=0;exitDy=0;exitPerimeter=0;entryX=0.817;entryY=-0.04;entryDx=0;entryDy=0;entryPerimeter=0;" parent="1" source="LamiG5945iya5oc63--S-17" target="LamiG5945iya5oc63--S-2" edge="1">
          <mxGeometry x="0.1345" y="-124" relative="1" as="geometry">
            <mxPoint x="910" y="470" as="sourcePoint" />
            <mxPoint x="980" y="400" as="targetPoint" />
            <mxPoint x="-1" as="offset" />
          </mxGeometry>
        </mxCell>
        <mxCell id="LamiG5945iya5oc63--S-42" value="1" style="text;html=1;align=center;verticalAlign=middle;resizable=0;points=[];autosize=1;strokeColor=none;fillColor=none;" parent="1" vertex="1">
          <mxGeometry x="580" y="490" width="30" height="30" as="geometry" />
        </mxCell>
        <mxCell id="LamiG5945iya5oc63--S-50" value="" style="endArrow=block;dashed=1;endFill=0;endSize=12;html=1;rounded=0;exitX=-0.007;exitY=0.258;exitDx=0;exitDy=0;entryX=1;entryY=0.25;entryDx=0;entryDy=0;exitPerimeter=0;" parent="1" target="LamiG5945iya5oc63--S-2" edge="1">
          <mxGeometry width="160" relative="1" as="geometry">
            <mxPoint x="948.1100000000001" y="334.384" as="sourcePoint" />
            <mxPoint x="650" y="530" as="targetPoint" />
          </mxGeometry>
        </mxCell>
        <mxCell id="LamiG5945iya5oc63--S-55" value="" style="endArrow=block;dashed=1;endFill=0;endSize=12;html=1;rounded=0;exitX=-0.007;exitY=0.364;exitDx=0;exitDy=0;entryX=1;entryY=0.5;entryDx=0;entryDy=0;exitPerimeter=0;" parent="1" target="LamiG5945iya5oc63--S-2" edge="1">
          <mxGeometry width="160" relative="1" as="geometry">
            <mxPoint x="948.1100000000001" y="496.0239999999999" as="sourcePoint" />
            <mxPoint x="650" y="555" as="targetPoint" />
          </mxGeometry>
        </mxCell>
        <mxCell id="LamiG5945iya5oc63--S-59" value="" style="endArrow=block;dashed=1;endFill=0;endSize=12;html=1;rounded=0;exitX=-0.011;exitY=0.318;exitDx=0;exitDy=0;entryX=1;entryY=0.75;entryDx=0;entryDy=0;exitPerimeter=0;" parent="1" target="LamiG5945iya5oc63--S-2" edge="1">
          <mxGeometry width="160" relative="1" as="geometry">
            <mxPoint x="947.0300000000002" y="668.9879999999998" as="sourcePoint" />
            <mxPoint x="650" y="580" as="targetPoint" />
          </mxGeometry>
        </mxCell>
        <mxCell id="LamiG5945iya5oc63--S-60" value="BuscadorFechaCreacionMuestra" style="swimlane;fontStyle=1;align=center;verticalAlign=top;childLayout=stackLayout;horizontal=1;startSize=26;horizontalStack=0;resizeParent=1;resizeParentMax=0;resizeLast=0;collapsible=1;marginBottom=0;whiteSpace=wrap;html=1;fillColor=#6a00ff;fontColor=#ffffff;strokeColor=#3700CC;" parent="1" vertex="1">
          <mxGeometry x="950" y="282" width="250" height="86" as="geometry" />
        </mxCell>
        <mxCell id="LamiG5945iya5oc63--S-61" value="- Fecha: LocalDate" style="text;strokeColor=none;fillColor=none;align=left;verticalAlign=top;spacingLeft=4;spacingRight=4;overflow=hidden;rotatable=0;points=[[0,0.5],[1,0.5]];portConstraint=eastwest;whiteSpace=wrap;html=1;" parent="LamiG5945iya5oc63--S-60" vertex="1">
          <mxGeometry y="26" width="250" height="26" as="geometry" />
        </mxCell>
        <mxCell id="LamiG5945iya5oc63--S-62" value="" style="line;strokeWidth=1;fillColor=none;align=left;verticalAlign=middle;spacingTop=-1;spacingLeft=3;spacingRight=3;rotatable=0;labelPosition=right;points=[];portConstraint=eastwest;strokeColor=inherit;" parent="LamiG5945iya5oc63--S-60" vertex="1">
          <mxGeometry y="52" width="250" height="8" as="geometry" />
        </mxCell>
        <mxCell id="LamiG5945iya5oc63--S-63" value="+filtrar (List&amp;lt;Muestra&amp;gt;): List &amp;lt;Muestra&amp;gt;" style="text;strokeColor=none;fillColor=none;align=left;verticalAlign=top;spacingLeft=4;spacingRight=4;overflow=hidden;rotatable=0;points=[[0,0.5],[1,0.5]];portConstraint=eastwest;whiteSpace=wrap;html=1;" parent="LamiG5945iya5oc63--S-60" vertex="1">
          <mxGeometry y="60" width="250" height="26" as="geometry" />
        </mxCell>
        <mxCell id="LamiG5945iya5oc63--S-64" value="BuscadorFechaUltimaOpinion" style="swimlane;fontStyle=1;align=center;verticalAlign=top;childLayout=stackLayout;horizontal=1;startSize=26;horizontalStack=0;resizeParent=1;resizeParentMax=0;resizeLast=0;collapsible=1;marginBottom=0;whiteSpace=wrap;html=1;fillColor=#6a00ff;fontColor=#ffffff;strokeColor=#3700CC;" parent="1" vertex="1">
          <mxGeometry x="950" y="450" width="250" height="86" as="geometry" />
        </mxCell>
        <mxCell id="LamiG5945iya5oc63--S-65" value="- Fecha: LocalDate" style="text;strokeColor=none;fillColor=none;align=left;verticalAlign=top;spacingLeft=4;spacingRight=4;overflow=hidden;rotatable=0;points=[[0,0.5],[1,0.5]];portConstraint=eastwest;whiteSpace=wrap;html=1;" parent="LamiG5945iya5oc63--S-64" vertex="1">
          <mxGeometry y="26" width="250" height="26" as="geometry" />
        </mxCell>
        <mxCell id="LamiG5945iya5oc63--S-66" value="" style="line;strokeWidth=1;fillColor=none;align=left;verticalAlign=middle;spacingTop=-1;spacingLeft=3;spacingRight=3;rotatable=0;labelPosition=right;points=[];portConstraint=eastwest;strokeColor=inherit;" parent="LamiG5945iya5oc63--S-64" vertex="1">
          <mxGeometry y="52" width="250" height="8" as="geometry" />
        </mxCell>
        <mxCell id="LamiG5945iya5oc63--S-67" value="+filtrar (List&amp;lt;Muestra&amp;gt;): List &amp;lt;Muestra&amp;gt;" style="text;strokeColor=none;fillColor=none;align=left;verticalAlign=top;spacingLeft=4;spacingRight=4;overflow=hidden;rotatable=0;points=[[0,0.5],[1,0.5]];portConstraint=eastwest;whiteSpace=wrap;html=1;" parent="LamiG5945iya5oc63--S-64" vertex="1">
          <mxGeometry y="60" width="250" height="26" as="geometry" />
        </mxCell>
        <mxCell id="LamiG5945iya5oc63--S-68" value="BuscadorTipoInsecto" style="swimlane;fontStyle=1;align=center;verticalAlign=top;childLayout=stackLayout;horizontal=1;startSize=26;horizontalStack=0;resizeParent=1;resizeParentMax=0;resizeLast=0;collapsible=1;marginBottom=0;whiteSpace=wrap;html=1;fillColor=#6a00ff;fontColor=#ffffff;strokeColor=#3700CC;" parent="1" vertex="1">
          <mxGeometry x="950" y="620" width="250" height="86" as="geometry" />
        </mxCell>
        <mxCell id="LamiG5945iya5oc63--S-69" value="- InsectoABuscar: String" style="text;strokeColor=none;fillColor=none;align=left;verticalAlign=top;spacingLeft=4;spacingRight=4;overflow=hidden;rotatable=0;points=[[0,0.5],[1,0.5]];portConstraint=eastwest;whiteSpace=wrap;html=1;" parent="LamiG5945iya5oc63--S-68" vertex="1">
          <mxGeometry y="26" width="250" height="26" as="geometry" />
        </mxCell>
        <mxCell id="LamiG5945iya5oc63--S-70" value="" style="line;strokeWidth=1;fillColor=none;align=left;verticalAlign=middle;spacingTop=-1;spacingLeft=3;spacingRight=3;rotatable=0;labelPosition=right;points=[];portConstraint=eastwest;strokeColor=inherit;" parent="LamiG5945iya5oc63--S-68" vertex="1">
          <mxGeometry y="52" width="250" height="8" as="geometry" />
        </mxCell>
        <mxCell id="LamiG5945iya5oc63--S-71" value="+filtrar (List&amp;lt;Muestra&amp;gt;): List &amp;lt;Muestra&amp;gt;" style="text;strokeColor=none;fillColor=none;align=left;verticalAlign=top;spacingLeft=4;spacingRight=4;overflow=hidden;rotatable=0;points=[[0,0.5],[1,0.5]];portConstraint=eastwest;whiteSpace=wrap;html=1;" parent="LamiG5945iya5oc63--S-68" vertex="1">
          <mxGeometry y="60" width="250" height="26" as="geometry" />
        </mxCell>
        <mxCell id="Fh_I67ln2Q5nHfBaCTDf-1" value="muestras" style="endArrow=block;endFill=1;html=1;edgeStyle=orthogonalEdgeStyle;align=left;verticalAlign=top;rounded=0;exitX=0.25;exitY=1;exitDx=0;exitDy=0;entryX=0.688;entryY=0.01;entryDx=0;entryDy=0;entryPerimeter=0;" parent="1" source="LamiG5945iya5oc63--S-2" target="cjWLQR7C9Qx7QQM9_jkd-139" edge="1">
          <mxGeometry x="-0.8727" y="20" relative="1" as="geometry">
            <mxPoint x="580" y="810" as="sourcePoint" />
            <mxPoint x="740" y="810" as="targetPoint" />
            <mxPoint as="offset" />
          </mxGeometry>
        </mxCell>
        <mxCell id="Fh_I67ln2Q5nHfBaCTDf-2" value="*" style="edgeLabel;resizable=0;html=1;align=left;verticalAlign=bottom;" parent="Fh_I67ln2Q5nHfBaCTDf-1" connectable="0" vertex="1">
          <mxGeometry x="-1" relative="1" as="geometry">
            <mxPoint x="-100" y="398" as="offset" />
          </mxGeometry>
        </mxCell>
        <mxCell id="Fh_I67ln2Q5nHfBaCTDf-3" value="&lt;p style=&quot;margin:0px;margin-top:4px;text-align:center;&quot;&gt;&lt;i&gt;&amp;lt;&amp;lt;Interface&amp;gt;&amp;gt;&lt;/i&gt;&lt;b&gt;&lt;br&gt;&lt;/b&gt;&lt;/p&gt;&lt;p style=&quot;margin:0px;margin-top:4px;text-align:center;&quot;&gt;&lt;b&gt;EstadoMuestra&lt;/b&gt;&lt;br&gt;&lt;b&gt;&lt;/b&gt;&lt;/p&gt;&lt;hr size=&quot;1&quot;&gt;&lt;div&gt;+esVerificada():boolean&lt;/div&gt;+agregarOpinion():void&lt;hr size=&quot;1&quot;&gt;&lt;p style=&quot;margin:0px;margin-left:4px;&quot;&gt;&lt;br&gt;&lt;/p&gt;" style="verticalAlign=top;align=left;overflow=fill;fontSize=12;fontFamily=Helvetica;html=1;whiteSpace=wrap;fillColor=#dae8fc;strokeColor=#6c8ebf;" parent="1" vertex="1">
          <mxGeometry x="-170" y="346" width="190" height="94" as="geometry" />
        </mxCell>
        <mxCell id="Fh_I67ln2Q5nHfBaCTDf-4" value="" style="endArrow=block;dashed=1;endFill=0;endSize=12;html=1;rounded=0;exitX=0.997;exitY=1.068;exitDx=0;exitDy=0;exitPerimeter=0;entryX=0.071;entryY=1.054;entryDx=0;entryDy=0;entryPerimeter=0;" parent="1" source="dOL37KlRLSiU1scWst8k-22" target="dOL37KlRLSiU1scWst8k-29" edge="1">
          <mxGeometry width="160" relative="1" as="geometry">
            <mxPoint x="-100" y="400" as="sourcePoint" />
            <mxPoint x="60" y="400" as="targetPoint" />
          </mxGeometry>
        </mxCell>
        <mxCell id="Fh_I67ln2Q5nHfBaCTDf-5" value="" style="endArrow=block;dashed=1;endFill=0;endSize=12;html=1;rounded=0;exitX=0.019;exitY=1.035;exitDx=0;exitDy=0;exitPerimeter=0;entryX=0.897;entryY=0.003;entryDx=0;entryDy=0;entryPerimeter=0;" parent="1" source="dOL37KlRLSiU1scWst8k-18" target="Fh_I67ln2Q5nHfBaCTDf-3" edge="1">
          <mxGeometry width="160" relative="1" as="geometry">
            <mxPoint x="-100" y="400" as="sourcePoint" />
            <mxPoint x="60" y="400" as="targetPoint" />
          </mxGeometry>
        </mxCell>
        <mxCell id="KyZHcvAiNXcdfksuzNY9-2" style="edgeStyle=orthogonalEdgeStyle;rounded=0;orthogonalLoop=1;jettySize=auto;html=1;exitX=1;exitY=0.5;exitDx=0;exitDy=0;" edge="1" parent="1" source="cjWLQR7C9Qx7QQM9_jkd-145" target="cjWLQR7C9Qx7QQM9_jkd-128">
          <mxGeometry relative="1" as="geometry">
            <Array as="points">
              <mxPoint x="570" y="1121" />
            </Array>
          </mxGeometry>
        </mxCell>
        <mxCell id="KyZHcvAiNXcdfksuzNY9-35" value="&amp;lt;&amp;lt;Interface&amp;gt;&amp;gt;&lt;br&gt;ObserverZonaCobertura" style="swimlane;fontStyle=1;align=center;verticalAlign=top;childLayout=stackLayout;horizontal=1;startSize=50;horizontalStack=0;resizeParent=1;resizeParentMax=0;resizeLast=0;collapsible=1;marginBottom=0;whiteSpace=wrap;html=1;fillColor=#d5e8d4;strokeColor=#82b366;" vertex="1" parent="1">
          <mxGeometry x="720" y="1173" width="390" height="102" as="geometry" />
        </mxCell>
        <mxCell id="KyZHcvAiNXcdfksuzNY9-38" value="+nuevaCargaMuestra(ZonaDeCobertura,Muestra) : void" style="text;strokeColor=none;fillColor=none;align=left;verticalAlign=top;spacingLeft=4;spacingRight=4;overflow=hidden;rotatable=0;points=[[0,0.5],[1,0.5]];portConstraint=eastwest;whiteSpace=wrap;html=1;" vertex="1" parent="KyZHcvAiNXcdfksuzNY9-35">
          <mxGeometry y="50" width="390" height="26" as="geometry" />
        </mxCell>
        <mxCell id="KyZHcvAiNXcdfksuzNY9-39" value="+nuevaValidacionMuestra(ZonaDeCobertura,Muestra) : void" style="text;strokeColor=none;fillColor=none;align=left;verticalAlign=top;spacingLeft=4;spacingRight=4;overflow=hidden;rotatable=0;points=[[0,0.5],[1,0.5]];portConstraint=eastwest;whiteSpace=wrap;html=1;" vertex="1" parent="KyZHcvAiNXcdfksuzNY9-35">
          <mxGeometry y="76" width="390" height="26" as="geometry" />
        </mxCell>
        <mxCell id="KyZHcvAiNXcdfksuzNY9-45" value="subscritosAValidacion" style="text;html=1;align=center;verticalAlign=middle;resizable=0;points=[];autosize=1;strokeColor=none;fillColor=none;" vertex="1" parent="1">
          <mxGeometry x="910" y="1285" width="140" height="30" as="geometry" />
        </mxCell>
        <mxCell id="KyZHcvAiNXcdfksuzNY9-47" value="subscritosACarga" style="text;whiteSpace=wrap;html=1;rotation=0;" vertex="1" parent="1">
          <mxGeometry x="660" y="1310" width="130" height="40" as="geometry" />
        </mxCell>
        <mxCell id="KyZHcvAiNXcdfksuzNY9-79" value="organizaciones" style="text;html=1;align=center;verticalAlign=middle;resizable=0;points=[];autosize=1;strokeColor=none;fillColor=none;" vertex="1" parent="1">
          <mxGeometry x="470" y="868" width="100" height="30" as="geometry" />
        </mxCell>
        <mxCell id="KyZHcvAiNXcdfksuzNY9-80" style="edgeStyle=orthogonalEdgeStyle;rounded=0;orthogonalLoop=1;jettySize=auto;html=1;exitX=1;exitY=0.5;exitDx=0;exitDy=0;" edge="1" parent="1" source="KyZHcvAiNXcdfksuzNY9-67">
          <mxGeometry relative="1" as="geometry">
            <mxPoint x="1240" y="1190" as="targetPoint" />
            <Array as="points">
              <mxPoint x="1240" y="1003" />
              <mxPoint x="1240" y="1192" />
            </Array>
          </mxGeometry>
        </mxCell>
        <mxCell id="KyZHcvAiNXcdfksuzNY9-81" value="ubicacion" style="text;html=1;align=center;verticalAlign=middle;resizable=0;points=[];autosize=1;strokeColor=none;fillColor=none;" vertex="1" parent="1">
          <mxGeometry x="1150" y="1012" width="70" height="30" as="geometry" />
        </mxCell>
        <mxCell id="KyZHcvAiNXcdfksuzNY9-83" value="" style="endArrow=block;dashed=1;endFill=0;endSize=12;html=1;rounded=0;" edge="1" parent="1" target="KyZHcvAiNXcdfksuzNY9-35">
          <mxGeometry width="160" relative="1" as="geometry">
            <mxPoint x="850" y="1110" as="sourcePoint" />
            <mxPoint x="1130" y="1400" as="targetPoint" />
          </mxGeometry>
        </mxCell>
        <mxCell id="KyZHcvAiNXcdfksuzNY9-84" style="edgeStyle=orthogonalEdgeStyle;rounded=0;orthogonalLoop=1;jettySize=auto;html=1;exitX=1;exitY=0.5;exitDx=0;exitDy=0;entryX=0.003;entryY=0.36;entryDx=0;entryDy=0;entryPerimeter=0;" edge="1" parent="1" source="cjWLQR7C9Qx7QQM9_jkd-122" target="cjWLQR7C9Qx7QQM9_jkd-127">
          <mxGeometry relative="1" as="geometry" />
        </mxCell>
        <mxCell id="KyZHcvAiNXcdfksuzNY9-85" style="edgeStyle=orthogonalEdgeStyle;rounded=0;orthogonalLoop=1;jettySize=auto;html=1;exitX=1;exitY=0.5;exitDx=0;exitDy=0;entryX=0.057;entryY=1.031;entryDx=0;entryDy=0;entryPerimeter=0;" edge="1" parent="1" source="cjWLQR7C9Qx7QQM9_jkd-123" target="cjWLQR7C9Qx7QQM9_jkd-127">
          <mxGeometry relative="1" as="geometry" />
        </mxCell>
        <mxCell id="KyZHcvAiNXcdfksuzNY9-86" value="cargaMuestra" style="text;html=1;align=center;verticalAlign=middle;resizable=0;points=[];autosize=1;strokeColor=none;fillColor=none;" vertex="1" parent="1">
          <mxGeometry x="1191" y="760" width="100" height="30" as="geometry" />
        </mxCell>
        <mxCell id="KyZHcvAiNXcdfksuzNY9-87" value="validacionMuestra" style="text;whiteSpace=wrap;html=1;" vertex="1" parent="1">
          <mxGeometry x="1360" y="868" width="130" height="40" as="geometry" />
        </mxCell>
        <mxCell id="KyZHcvAiNXcdfksuzNY9-88" value="TipoDeOrganizacion" style="swimlane;fontStyle=1;align=center;verticalAlign=top;childLayout=stackLayout;horizontal=1;startSize=26;horizontalStack=0;resizeParent=1;resizeParentMax=0;resizeLast=0;collapsible=1;marginBottom=0;whiteSpace=wrap;html=1;fillColor=#d5e8d4;strokeColor=#82b366;" vertex="1" parent="1">
          <mxGeometry x="1390" y="946" width="200" height="130" as="geometry" />
        </mxCell>
        <mxCell id="KyZHcvAiNXcdfksuzNY9-89" value="+ SALUD" style="text;strokeColor=none;fillColor=none;align=left;verticalAlign=top;spacingLeft=4;spacingRight=4;overflow=hidden;rotatable=0;points=[[0,0.5],[1,0.5]];portConstraint=eastwest;whiteSpace=wrap;html=1;" vertex="1" parent="KyZHcvAiNXcdfksuzNY9-88">
          <mxGeometry y="26" width="200" height="26" as="geometry" />
        </mxCell>
        <mxCell id="KyZHcvAiNXcdfksuzNY9-92" value="+ EDUCACION" style="text;strokeColor=none;fillColor=none;align=left;verticalAlign=top;spacingLeft=4;spacingRight=4;overflow=hidden;rotatable=0;points=[[0,0.5],[1,0.5]];portConstraint=eastwest;whiteSpace=wrap;html=1;" vertex="1" parent="KyZHcvAiNXcdfksuzNY9-88">
          <mxGeometry y="52" width="200" height="26" as="geometry" />
        </mxCell>
        <mxCell id="KyZHcvAiNXcdfksuzNY9-93" value="+ CULTURAL" style="text;strokeColor=none;fillColor=none;align=left;verticalAlign=top;spacingLeft=4;spacingRight=4;overflow=hidden;rotatable=0;points=[[0,0.5],[1,0.5]];portConstraint=eastwest;whiteSpace=wrap;html=1;" vertex="1" parent="KyZHcvAiNXcdfksuzNY9-88">
          <mxGeometry y="78" width="200" height="26" as="geometry" />
        </mxCell>
        <mxCell id="KyZHcvAiNXcdfksuzNY9-98" value="+ ASISTENCIA" style="text;strokeColor=none;fillColor=none;align=left;verticalAlign=top;spacingLeft=4;spacingRight=4;overflow=hidden;rotatable=0;points=[[0,0.5],[1,0.5]];portConstraint=eastwest;whiteSpace=wrap;html=1;" vertex="1" parent="KyZHcvAiNXcdfksuzNY9-88">
          <mxGeometry y="104" width="200" height="26" as="geometry" />
        </mxCell>
        <mxCell id="KyZHcvAiNXcdfksuzNY9-99" style="edgeStyle=orthogonalEdgeStyle;rounded=0;orthogonalLoop=1;jettySize=auto;html=1;exitX=1;exitY=0.5;exitDx=0;exitDy=0;entryX=0;entryY=0.5;entryDx=0;entryDy=0;" edge="1" parent="1" source="KyZHcvAiNXcdfksuzNY9-52" target="KyZHcvAiNXcdfksuzNY9-92">
          <mxGeometry relative="1" as="geometry">
            <Array as="points">
              <mxPoint x="1310" y="951" />
              <mxPoint x="1310" y="1011" />
            </Array>
          </mxGeometry>
        </mxCell>
        <mxCell id="KyZHcvAiNXcdfksuzNY9-100" value="tipo" style="text;html=1;align=center;verticalAlign=middle;resizable=0;points=[];autosize=1;strokeColor=none;fillColor=none;" vertex="1" parent="1">
          <mxGeometry x="1190" y="960" width="40" height="30" as="geometry" />
        </mxCell>
        <mxCell id="KyZHcvAiNXcdfksuzNY9-107" style="edgeStyle=orthogonalEdgeStyle;rounded=0;orthogonalLoop=1;jettySize=auto;html=1;exitX=1;exitY=0.5;exitDx=0;exitDy=0;entryX=1.153;entryY=0.086;entryDx=0;entryDy=0;entryPerimeter=0;" edge="1" parent="1" source="cjWLQR7C9Qx7QQM9_jkd-137" target="KyZHcvAiNXcdfksuzNY9-111">
          <mxGeometry relative="1" as="geometry" />
        </mxCell>
        <mxCell id="KyZHcvAiNXcdfksuzNY9-108" value="epicentro" style="text;html=1;align=center;verticalAlign=middle;resizable=0;points=[];autosize=1;strokeColor=none;fillColor=none;" vertex="1" parent="1">
          <mxGeometry x="1045" y="1398" width="70" height="30" as="geometry" />
        </mxCell>
        <mxCell id="KyZHcvAiNXcdfksuzNY9-109" value="*" style="text;html=1;align=center;verticalAlign=middle;resizable=0;points=[];autosize=1;strokeColor=none;fillColor=none;" vertex="1" parent="1">
          <mxGeometry x="735" y="1278" width="30" height="30" as="geometry" />
        </mxCell>
        <mxCell id="KyZHcvAiNXcdfksuzNY9-110" value="*" style="text;html=1;align=center;verticalAlign=middle;resizable=0;points=[];autosize=1;strokeColor=none;fillColor=none;" vertex="1" parent="1">
          <mxGeometry x="885" y="1278" width="30" height="30" as="geometry" />
        </mxCell>
        <mxCell id="KyZHcvAiNXcdfksuzNY9-111" value="1" style="text;html=1;align=center;verticalAlign=middle;resizable=0;points=[];autosize=1;strokeColor=none;fillColor=none;" vertex="1" parent="1">
          <mxGeometry x="1250" y="1364" width="30" height="30" as="geometry" />
        </mxCell>
        <mxCell id="KyZHcvAiNXcdfksuzNY9-112" value="1" style="text;html=1;align=center;verticalAlign=middle;resizable=0;points=[];autosize=1;strokeColor=none;fillColor=none;" vertex="1" parent="1">
          <mxGeometry x="1205" y="1168" width="30" height="30" as="geometry" />
        </mxCell>
        <mxCell id="KyZHcvAiNXcdfksuzNY9-113" value="1" style="text;html=1;align=center;verticalAlign=middle;resizable=0;points=[];autosize=1;strokeColor=none;fillColor=none;" vertex="1" parent="1">
          <mxGeometry x="1355" y="978" width="30" height="30" as="geometry" />
        </mxCell>
        <mxCell id="KyZHcvAiNXcdfksuzNY9-114" value="*" style="text;html=1;align=center;verticalAlign=middle;resizable=0;points=[];autosize=1;strokeColor=none;fillColor=none;" vertex="1" parent="1">
          <mxGeometry x="1295" y="768" width="30" height="30" as="geometry" />
        </mxCell>
        <mxCell id="KyZHcvAiNXcdfksuzNY9-115" value="*" style="text;html=1;align=center;verticalAlign=middle;resizable=0;points=[];autosize=1;strokeColor=none;fillColor=none;" vertex="1" parent="1">
          <mxGeometry x="1315" y="848" width="30" height="30" as="geometry" />
        </mxCell>
        <mxCell id="KyZHcvAiNXcdfksuzNY9-116" value="*" style="text;html=1;align=center;verticalAlign=middle;resizable=0;points=[];autosize=1;strokeColor=none;fillColor=none;" vertex="1" parent="1">
          <mxGeometry x="645" y="868" width="30" height="30" as="geometry" />
        </mxCell>
      </root>
    </mxGraphModel>
  </diagram>
</mxfile>
